PathFileType	4	(X/Y/Z)	C:/Users/beibeiliu/ov580/test_trc/User3\sequence.29_training_dense_left.trc
DataRate	CameraRate	NumFrames	NumMarkers	Units	OrigDataRate	OrigDataStartFrame	OrigNumFrames
120	120	13	19	mm	120	26	128
Frame#	Time	ThumbCMC			ThumbMCP			ThumbIP			ThumbTip			IndexMCP			IndexPIP			IndexTip			MiddleMCP			MiddlePIP			MiddleTip			RingMCP			RingPIP			RingTip			PinkyMCP			PinkyPIP			PinkyTip			BackHand1			BackHand2			BackHand3	
		X0	Y0	Z0	X1	Y1	Z1	X2	Y2	Z2	X3	Y3	Z3	X4	Y4	Z4	X5	Y5	Z5	X6	Y6	Z6	X7	Y7	Z7	X8	Y8	Z8	X9	Y9	Z9	X10	Y10	Z10	X11	Y11	Z11	X12	Y12	Z12	X13	Y13	Z13	X14	Y14	Z14	X15	Y15	Z15	X16	Y16	Z16	X17	Y17	Z17	X18	Y18	Z18	
25	0.208333	-16.397	14.2706	25.134	8.39791	8.06039	5.35863	26.0148	2.44865	-19.794	37.7592	-4.61672	-35.151	-31.6662	34.5364	-54.544	-25.7446	33.9452	-80.7674	-22.9766	32.4039	-105.025	-56.2249	38.4794	-58.2638	-55.5713	37.972	-86.0818	-60.1067	33.853	-116.883	-81.6665	29.7655	-49.3239	-87.4267	27.2439	-74.8397	-95.0587	21.1934	-99.788	-96.9013	19.0966	-35.0424	-107.361	13.4236	-52.881	-115.748	6.98821	-72.0829	-74.9621	39.5952	6.13498	-71.1177	40.5909	31.2163	-42.0361	38.8624	15.9669	
26	0.216667	-18.7064	25.8425	18.9104	0.669956	22.409	-3.58818	12.4698	19.1753	-28.5141	21.7194	13.2164	-47.872	-40.9613	46.4472	-51.1996	-43.5684	50.5134	-78.3267	-41.3043	49.9116	-102.656	-74.0061	47.3313	-56.1736	-72.1954	49.1382	-82.4399	-76.4634	48.3504	-112.797	-89.9201	35.0036	-49.2165	-97.8583	31.7416	-73.606	-104.848	25.032	-99.5799	-108.528	18.2277	-30.1423	-114.835	10.2211	-52.3192	-125.42	2.32244	-68.8333	-85.8253	41.3797	2.93982	-83.3592	41.468	36.6528	-50.0896	46.0022	13.9915	
27	0.225	-41.2492	26.1658	11.89	-21.4012	23.5409	-11.5049	-9.49778	23.5404	-42.0726	1.93993	19.592	-59.7335	-75.2587	42.5528	-53.8422	-73.8976	48.6501	-84.5334	-80.3897	46.5555	-107.646	-101.634	42.96	-56.521	-112.497	44.353	-81.4462	-117.706	42.1149	-115.944	-120.446	25.4998	-43.1137	-130.87	19.1534	-70.2143	-138.756	8.54678	-90.5854	-132.769	5.95242	-24.4876	-137.017	-4.76417	-42.1994	-142.84	-23.6009	-60.3289	-102.582	35.4854	5.21965	-99.7573	34.8155	36.3713	-73.6172	43.9032	8.22575	
28	0.233333	-46.2599	17.4963	6.19609	-34.5103	9.32047	-13.2309	-20.3776	5.62308	-40.4463	-8.51258	1.6349	-56.801	-85.6155	17.7084	-60.2444	-88.3792	16.3746	-85.0679	-93.9975	12.9311	-114.256	-110.347	15.0577	-55.0603	-122.367	12.1509	-84.7912	-132.163	3.62318	-109.365	-127.645	-1.65695	-45.1384	-136.388	-12.7824	-68.9115	-141.671	-31.3645	-85.9726	-135.845	-16.9072	-22.0998	-142.232	-38.9419	-36.4216	-139.14	-61.9699	-47.0788	-116.343	19.5897	1.19685	-105.429	27.2592	33.6868	-82.0713	32.7903	5.61122	
29	0.241667	-46.3645	20.9379	11.2466	-32.1923	13.36	-12.3783	-12.0397	13.9233	-34.8907	1.15904	9.06217	-50.4924	-77.4514	-5.33887	-56.7279	-74.8128	-11.3622	-83.1531	-74.786	-18.694	-109.556	-103.819	-16.4526	-55.6744	-106.346	-28.0171	-80.8833	-109.768	-42.6275	-110.28	-110.435	-32.1194	-41.1949	-112.302	-51.8662	-60.3391	-110.779	-76.5419	-71.9079	-115.86	-43.9817	-17.359	-113.15	-69.9489	-27.1536	-97.8928	-90.4688	-29.3428	-107.767	4.41997	1.51941	-106.189	15.7685	27.1291	-82.3113	24.7601	1.92811	
30	0.25	-59.5912	32.1908	5.77861	-40.4904	37.6185	-17.415	-24.6021	36.0348	-36.5638	-9.7637	37.7707	-56.0694	-64.7014	-7.74468	-61.0814	-61.1322	-18.3762	-78.7449	-57.0488	-30.1535	-105.774	-82.062	-31.7525	-51.1185	-76.9077	-47.8456	-75.7583	-70.3861	-64.0196	-98.6349	-81.6673	-49.8929	-37.3207	-70.0059	-71.4938	-49.6511	-50.2254	-87.3593	-60.0464	-82.6834	-60.7364	-11.0094	-67.7695	-77.8324	-14.2166	-40.9298	-91.4349	-15.1164	-106.176	-14.6461	-1.10802	-110.238	2.85226	25.983	-91.4731	18.4571	-2.03459	
31	0.258333	-80.6963	37.8589	3.76462	-67.4005	50.0239	-21.7156	-55.4161	53.1334	-43.4667	-45.4514	63.4423	-62.6045	-62.6098	-7.89161	-61.1443	-53.2037	-10.1572	-81.8274	-43.7459	-18.577	-105.492	-62.3624	-33.2381	-55.623	-48.8142	-43.4844	-76.142	-34.6751	-54.6012	-101.166	-52.968	-48.461	-30.72	-33.68	-57.1489	-43.9051	-5.78422	-65.1296	-53.5059	-50.4515	-56.1338	-4.87458	-25.1269	-64.3418	-10.001	-3.43068	-63.5757	-12.1738	-93.8751	-26.9737	0.0815922	-105.436	-11.857	26.1161	-96.8839	10.6805	-5.55518	
32	0.266667	-105.082	23.7127	-0.0976036	-103.463	36.1914	-24.6724	-99.3759	46.8817	-51.7144	-92.433	52.8668	-71.4757	-73.2167	-8.61014	-60.2425	-60.4754	-12.149	-85.1628	-49.3407	-16.8981	-107.497	-55.4132	-32.6355	-52.3812	-40.0394	-37.0081	-75.3348	-21.5396	-38.564	-100.893	-39.4128	-37.2148	-34.1711	-17.2216	-38.3611	-45.6038	8.31174	-31.6683	-56.6567	-27.8402	-40.8856	-7.08885	-7.95593	-34.6746	-17.9452	15.2585	-25.8051	-23.6027	-80.455	-38.94	1.90777	-96.9471	-28.6644	28.7159	-101.721	-12.1434	-0.226823	
33	0.275	-131.696	-0.229909	1.16724	-137.911	8.28215	-25.8187	-140.664	15.3507	-56.1061	-140.026	22.1569	-72.6322	-92.8386	-31.4849	-60.9853	-86.6054	-34.0451	-88.083	-78.0397	-32.643	-113.731	-69.9411	-44.1169	-58.2414	-56.8318	-46.1441	-80.6047	-42.211	-43.1736	-107.062	-48.7485	-39.5058	-42.0449	-30.9705	-35.3519	-56.6101	-9.97052	-22.6866	-74.7994	-31.2903	-34.5729	-19	-18.6819	-24.7836	-31.9277	0.299145	-16.7249	-41.02	-83.4839	-47.5567	1.80248	-93.6369	-42.9824	28.4802	-112.092	-34.4873	1.66181	
34	0.283333	-147.383	-5.03376	7.10071	-160.065	5.10484	-18.1228	-166.028	9.54103	-45.0453	-168.032	13.6814	-68.0638	-128.769	-42.1914	-57.8187	-125.927	-47.7556	-90.2904	-121.812	-47.3014	-111.769	-104.917	-58.026	-60.2002	-94.8365	-61.7541	-87.1627	-83.4933	-56.9348	-118.701	-79.4105	-54.3293	-46.1687	-68.0844	-52.5398	-71.9546	-50.1457	-42.1871	-93.2094	-61.3375	-46.2927	-26.2306	-47.4044	-41.3704	-48.6428	-34.5588	-34.3238	-66.0186	-103.617	-53.5514	2.34173	-107.545	-45.7015	33.7386	-130.2	-39.8699	6.88908	
35	0.291667	-151.124	16.6491	13.6007	-160.803	26.3145	-15.0318	-166.429	33.373	-38.8842	-168.776	39.36	-62.4406	-162.137	-25.5459	-53.4208	-167.736	-27.4699	-85.3389	-163.912	-28.6061	-107.341	-143.834	-51.0666	-57.5956	-144.893	-52.4856	-86.9795	-138.159	-50.447	-118.927	-121.251	-56.4276	-48.5816	-116.158	-59.5402	-77.0639	-104.052	-55.081	-99.9097	-99.8109	-59.0471	-37.519	-91.3119	-58.8927	-59.4147	-79.4129	-57.5253	-76.4084	-130.752	-50.2246	2.24972	-127.403	-42.3259	33.2273	-149.235	-22.4343	12.8339	
36	0.3	-130.842	40.7488	15.7424	-133.464	53.6055	-11.8163	-135.278	64.8597	-35.5383	-136.267	77.1813	-58.6079	-168.113	12.0344	-49.9851	-176.469	14.2648	-75.0828	-177.005	13.4179	-102.627	-169.956	-11.5896	-51.8718	-176.081	-10.9771	-80.0579	-171.549	-16.467	-113	-155.734	-30.6667	-44.9567	-158.831	-34.4699	-70.9993	-150.897	-36.7423	-103.914	-140.456	-44.0685	-37.9424	-139.033	-48.1315	-59.5359	-131.811	-55.4704	-83.109	-150.718	-26.0787	6.67799	-144.652	-21.4451	32.992	-152.162	7.58709	15.3899	
37	0.308333	-99.9574	45.2639	13.5738	-93.8793	60.2417	-12.7017	-87.7305	70.4855	-34.7408	-82.0331	81.2468	-56.5613	-149.417	46.8437	-51.8624	-154.634	53.9886	-76.4511	-155.231	56.78	-102.184	-163.245	25.74	-48.3563	-171.071	30.1302	-77.8134	-172.34	26.4648	-109.708	-164.707	3.1735	-42.2756	-172.128	5.71657	-71.527	-174.14	-4.08751	-100.532	-158.993	-17.6108	-29.241	-165.775	-21.3501	-53.6987	-167.85	-22.4588	-75.7726	-150.797	8.0433	9.2542	-145.633	0.686389	35.6431	-134.842	36.1051	14.7679	
